<svg width="25" height="25" viewBox="0 0 25 25" fill="none" xmlns="http://www.w3.org/2000/svg">
<path d="M12.6543 9.66948C12.061 9.66948 11.4809 9.84543 10.9876 10.1751C10.4942 10.5047 10.1097 10.9733 9.88266 11.5214C9.6556 12.0696 9.59619 12.6728 9.71194 13.2548C9.8277 13.8367 10.1134 14.3712 10.533 14.7908C10.9525 15.2104 11.4871 15.4961 12.069 15.6118C12.651 15.7276 13.2542 15.6682 13.8023 15.4411C14.3505 15.2141 14.8191 14.8295 15.1487 14.3362C15.4784 13.8428 15.6543 13.2628 15.6543 12.6695C15.6543 11.8738 15.3382 11.1108 14.7756 10.5482C14.213 9.98555 13.4499 9.66948 12.6543 9.66948ZM12.6543 14.1695C12.3576 14.1695 12.0676 14.0815 11.8209 13.9167C11.5743 13.7519 11.382 13.5176 11.2685 13.2435C11.1549 12.9694 11.1252 12.6678 11.1831 12.3768C11.241 12.0859 11.3839 11.8186 11.5936 11.6088C11.8034 11.399 12.0707 11.2562 12.3617 11.1983C12.6526 11.1404 12.9542 11.1701 13.2283 11.2837C13.5024 11.3972 13.7367 11.5895 13.9015 11.8361C14.0663 12.0828 14.1543 12.3728 14.1543 12.6695C14.1543 13.0673 13.9963 13.4488 13.715 13.7301C13.4337 14.0114 13.0521 14.1695 12.6543 14.1695ZM12.6543 8.16948C13.2476 8.16948 13.8277 7.99353 14.321 7.66389C14.8144 7.33425 15.1989 6.86571 15.4259 6.31753C15.653 5.76935 15.7124 5.16615 15.5967 4.58421C15.4809 4.00227 15.1952 3.46772 14.7756 3.04816C14.3561 2.6286 13.8215 2.34288 13.2396 2.22712C12.6576 2.11137 12.0544 2.17078 11.5062 2.39784C10.9581 2.62491 10.4895 3.00942 10.1599 3.50277C9.83025 3.99612 9.6543 4.57614 9.6543 5.16948C9.6543 5.96513 9.97037 6.72819 10.533 7.2908C11.0956 7.85341 11.8586 8.16948 12.6543 8.16948ZM12.6543 3.66948C12.951 3.66948 13.241 3.75745 13.4877 3.92228C13.7343 4.0871 13.9266 4.32137 14.0401 4.59546C14.1536 4.86954 14.1834 5.17114 14.1255 5.46212C14.0676 5.75309 13.9247 6.02036 13.715 6.23014C13.5052 6.43992 13.2379 6.58278 12.9469 6.64066C12.656 6.69854 12.3544 6.66883 12.0803 6.5553C11.8062 6.44177 11.5719 6.24951 11.4071 6.00284C11.2423 5.75616 11.1543 5.46615 11.1543 5.16948C11.1543 4.77166 11.3123 4.39013 11.5936 4.10882C11.8749 3.82752 12.2565 3.66948 12.6543 3.66948ZM12.6543 17.1695C12.061 17.1695 11.4809 17.3454 10.9876 17.6751C10.4942 18.0047 10.1097 18.4733 9.88266 19.0214C9.6556 19.5696 9.59619 20.1728 9.71194 20.7548C9.8277 21.3367 10.1134 21.8712 10.533 22.2908C10.9525 22.7104 11.4871 22.9961 12.069 23.1118C12.651 23.2276 13.2542 23.1682 13.8023 22.9411C14.3505 22.7141 14.8191 22.3295 15.1487 21.8362C15.4784 21.3428 15.6543 20.7628 15.6543 20.1695C15.6543 19.3738 15.3382 18.6108 14.7756 18.0482C14.213 17.4856 13.4499 17.1695 12.6543 17.1695ZM12.6543 21.6695C12.3576 21.6695 12.0676 21.5815 11.8209 21.4167C11.5743 21.2519 11.382 21.0176 11.2685 20.7435C11.1549 20.4694 11.1252 20.1678 11.1831 19.8768C11.241 19.5859 11.3839 19.3186 11.5936 19.1088C11.8034 18.899 12.0707 18.7562 12.3617 18.6983C12.6526 18.6404 12.9542 18.6701 13.2283 18.7837C13.5024 18.8972 13.7367 19.0895 13.9015 19.3361C14.0663 19.5828 14.1543 19.8728 14.1543 20.1695C14.1543 20.5673 13.9963 20.9488 13.715 21.2301C13.4337 21.5114 13.0521 21.6695 12.6543 21.6695Z" fill="black"/>
</svg>
